<?xml version="1.0" standalone="no"?>
<!DOCTYPE svg PUBLIC "-//W3C//DTD SVG 20010904//EN"
 "http://www.w3.org/TR/2001/REC-SVG-20010904/DTD/svg10.dtd">
<svg version="1.0" xmlns="http://www.w3.org/2000/svg"
 width="86.000000pt" height="64.000000pt" viewBox="0 0 86.000000 64.000000"
 preserveAspectRatio="xMidYMid meet">

<g transform="translate(0.000000,64.000000) scale(0.100000,-0.100000)"
fill="#000000" stroke="none">
<path d="M220 628 c-90 -25 -144 -103 -138 -199 l3 -58 -40 -3 c-28 -2 -40 -8
-40 -18 0 -11 13 -16 47 -18 46 -3 49 -5 212 -170 l166 -167 172 172 c156 155
177 172 211 175 47 4 53 22 10 26 -33 3 -33 3 -33 60 -1 104 -54 177 -149 202
-56 15 -126 -1 -172 -39 l-33 -28 -36 27 c-33 27 -97 51 -130 49 -8 0 -31 -5
-50 -11z m128 -47 c20 -10 46 -28 56 -40 11 -12 24 -21 31 -21 7 0 20 9 31 21
27 31 88 59 125 59 84 0 161 -73 163 -154 1 -74 -2 -76 -104 -76 l-91 0 -15
36 c-8 19 -20 34 -26 32 -6 -2 -25 -43 -42 -91 -17 -48 -33 -87 -36 -87 -3 0
-22 50 -44 110 -21 61 -43 110 -48 110 -5 0 -21 -27 -35 -60 l-26 -60 -78 0
-77 0 -12 35 c-23 68 14 150 83 184 52 26 97 27 145 2z m47 -273 c21 -60 41
-108 45 -108 5 0 23 43 41 95 19 52 37 95 41 95 4 0 10 -9 13 -20 6 -18 15
-20 96 -20 49 0 89 -3 89 -8 0 -4 -64 -71 -143 -150 l-142 -142 -145 145 -145
145 78 0 77 0 22 45 c12 25 25 42 29 38 3 -5 23 -56 44 -115z"/>
</g>
</svg>
