<?xml version="1.0" standalone="no"?><!DOCTYPE svg PUBLIC "-//W3C//DTD SVG 20010904//EN""http://www.w3.org/TR/2001/REC-SVG-20010904/DTD/svg10.dtd"><svg version="1.0" xmlns="http://www.w3.org/2000/svg"width="68.000000pt" height="66.000000pt" viewBox="0 0 68.000000 66.000000"preserveAspectRatio="xMidYMid meet"><g transform="translate(0.000000,66.000000) scale(0.100000,-0.100000)"fill="#000000" stroke="none"><path d="M441 648 c-46 -16 -98 -69 -110 -115 -21 -75 -8 -144 21 -115 5 5 1335 17 67 7 49 14 64 44 92 32 28 44 33 88 33 46 0 55 -4 90 -39 33 -33 39 -4539 -82 0 -26 -8 -57 -20 -76 -35 -58 -57 -63 -283 -63 -196 0 -205 -1 -238-23 -131 -88 -104 -275 45 -317 89 -25 191 31 215 117 16 56 14 110 -4 117-19 7 -35 -30 -35 -81 0 -28 -8 -44 -39 -74 -35 -35 -44 -39 -91 -39 -47 0-56 4 -91 39 -33 33 -39 45 -39 82 0 26 8 57 20 76 35 58 57 63 280 63 220 0236 3 284 60 31 38 49 101 41 143 -22 103 -134 168 -234 135z"/></g></svg>
