<?xml version="1.0" standalone="no"?>
<!DOCTYPE svg PUBLIC "-//W3C//DTD SVG 20010904//EN"
 "http://www.w3.org/TR/2001/REC-SVG-20010904/DTD/svg10.dtd">
<svg version="1.0" xmlns="http://www.w3.org/2000/svg"
 width="65.000000pt" height="65.000000pt" viewBox="0 0 65.000000 65.000000"
 preserveAspectRatio="xMidYMid meet">

<g transform="translate(0.000000,65.000000) scale(0.100000,-0.100000)"
fill="#000000" stroke="none">
<path d="M334 640 c-24 -9 -64 -56 -64 -74 0 -17 -171 -183 -196 -190 -29 -9
-61 -45 -69 -79 -7 -26 0 -36 77 -113 57 -56 92 -84 107 -84 26 0 91 60 91 83
0 8 7 20 16 28 13 11 30 -2 122 -94 60 -59 119 -109 133 -112 39 -10 92 40 92
84 0 28 -15 48 -108 141 -93 94 -107 111 -96 124 8 9 20 16 28 16 23 0 83 65
83 91 0 26 -157 189 -181 188 -8 0 -24 -4 -35 -9z m111 -110 l69 -69 -24 -26
c-13 -14 -29 -24 -34 -21 -15 5 -225 -204 -220 -218 3 -7 -7 -23 -21 -36 l-26
-24 -76 76 -76 76 27 27 c14 14 30 24 34 21 11 -7 215 199 218 219 3 23 24 45
43 45 9 0 48 -31 86 -70z m155 -440 c0 -20 -20 -40 -39 -40 -9 0 -62 46 -118
102 l-103 102 27 28 27 28 103 -102 c57 -56 103 -110 103 -118z"/>
</g>
</svg>
